<svg width="154" height="151" viewBox="0 0 154 151" fill="none" xmlns="http://www.w3.org/2000/svg">
<path d="M77.0644 126C109.84 126 136.42 99.6 136.42 67C136.42 34.4 109.84 8 77.0644 8C44.289 8 17.709 34.4 17.709 67C17.709 99.6 44.289 126 77.0644 126Z" fill="#EAEEF9"/>
<path d="M134.904 38.8001C137.166 38.8001 139 36.9645 139 34.7001C139 32.4357 137.166 30.6001 134.904 30.6001C132.641 30.6001 130.807 32.4357 130.807 34.7001C130.807 36.9645 132.641 38.8001 134.904 38.8001Z" fill="#EAEEF9"/>
<path d="M130.806 25.4999C132.351 25.4999 133.604 24.2463 133.604 22.6999C133.604 21.1535 132.351 19.8999 130.806 19.8999C129.26 19.8999 128.008 21.1535 128.008 22.6999C128.008 24.2463 129.26 25.4999 130.806 25.4999Z" fill="#EAEEF9"/>
<path d="M17.4913 34.7001C19.0365 34.7001 20.2892 33.4465 20.2892 31.9001C20.2892 30.3537 19.0365 29.1001 17.4913 29.1001C15.946 29.1001 14.6934 30.3537 14.6934 31.9001C14.6934 33.4465 15.946 34.7001 17.4913 34.7001Z" fill="#EAEEF9"/>
<path d="M11.1961 96.2999C14.0658 96.2999 16.3922 93.9718 16.3922 91.0999C16.3922 88.228 14.0658 85.8999 11.1961 85.8999C8.32637 85.8999 6 88.228 6 91.0999C6 93.9718 8.32637 96.2999 11.1961 96.2999Z" fill="#EAEEF9"/>
<g filter="url(#filter0_d_1515_27868)">
<path d="M131.749 52.393V106.534C131.749 106.757 131.749 106.869 131.749 107.092C131.637 110.217 130.187 112.897 127.956 114.794C126.06 116.469 123.494 117.585 120.706 117.585H33.3649C31.4686 117.585 29.6839 117.139 28.1222 116.245C27.453 115.911 26.7837 115.464 26.226 114.906C24.9989 113.901 23.8835 112.45 23.3257 110.887C22.8796 109.771 22.5449 108.543 22.5449 107.315V52.393C22.5449 52.393 27.1183 48.486 33.6996 43.1277C40.5039 37.4346 49.4276 30.067 57.2358 23.5924C61.6977 19.797 61.2515 20.2435 68.1674 14.4387C73.4101 9.97354 81.1068 9.97354 86.3494 14.4387C87.688 15.5551 89.1381 16.8946 90.4767 18.0109C93.3769 20.3552 96.5002 23.0343 99.8465 25.825C106.874 31.6298 114.571 38.1044 120.594 43.1277C126.729 48.1511 131.191 51.9465 131.749 52.393Z" fill="#2F80ED"/>
</g>
<path d="M120.594 43.0159V62.4396L101.52 73.9375L95.831 77.398L83.784 84.654L78.0951 88.1145L75.6411 89.5657L73.2986 88.1145L67.9444 84.654L56.4551 77.398L51.1009 73.9375L33.4766 62.8861V43.1276C40.2809 37.4344 49.2046 30.0668 57.0128 23.5923L99.7351 25.7133C106.874 31.6297 114.571 37.9926 120.594 43.0159Z" fill="#0053C2"/>
<path d="M116.802 27.6111V61.7699L99.4006 72.1516L94.2695 75.2772L83.2264 81.7518L78.0953 84.8774L75.8644 86.1053L73.745 84.8774L68.8369 81.7518L58.3516 75.2772L53.4435 72.1516L37.3809 62.1048V27.6111C37.3809 24.0389 40.2811 21.1365 43.9621 21.1365H110.221C113.79 21.0249 116.802 24.0389 116.802 27.6111Z" fill="white"/>
<path opacity="0.5" d="M22.9902 52.1699L75.417 55.6305L130.967 52.1699L128.848 62.105C128.848 62.105 76.644 89.3428 76.9787 89.3428C77.3133 89.3428 23.1018 57.0817 23.1018 57.0817L22.9902 52.1699Z" fill="url(#paint0_linear_1515_27868)"/>
<path d="M131.749 52.3931V107.092C131.637 110.218 130.187 112.897 127.956 114.794C126.06 116.469 123.494 117.585 120.706 117.585H33.3649C31.4686 117.585 29.6839 117.139 28.1222 116.246C27.453 115.911 26.7837 115.464 26.226 114.906C24.9989 113.901 23.8835 112.45 23.3257 110.887C22.8796 109.771 22.5449 108.543 22.5449 107.315V107.203V52.3931L71.4022 82.9797L75.641 85.6589L77.0911 84.7658L78.4297 83.9844L131.749 52.3931Z" fill="#738DFF"/>
<path d="M128.068 114.794C126.171 116.469 123.606 117.585 120.817 117.585H33.3649C31.4686 117.585 29.6839 117.139 28.1222 116.246C27.453 115.911 26.7837 115.464 26.226 114.906C24.9989 113.901 23.8835 112.45 23.3257 110.887C22.8796 109.771 22.5449 108.543 22.5449 107.315V107.203V52.3931L28.2338 55.8536L77.0911 84.7658L78.4296 85.5472L78.5412 85.6589L122.379 111.557L128.068 114.794Z" fill="url(#paint1_linear_1515_27868)"/>
<path d="M78.4301 83.8726V87.668L28.1227 116.245C27.4534 115.91 26.7841 115.464 26.2264 114.906C24.9994 113.901 23.8839 112.45 23.3262 110.887L72.295 81.8633L76.5338 84.5424L77.0915 84.7657L78.4301 83.8726Z" fill="url(#paint2_linear_1515_27868)"/>
<path d="M22.5449 52.3931L77.0911 84.7658" stroke="white" stroke-miterlimit="10"/>
<path d="M131.749 52.3931V107.092C131.638 110.218 130.188 112.897 127.957 114.794C126.061 116.469 123.495 117.585 120.706 117.585H33.3655C31.4692 117.585 29.6845 117.139 28.1229 116.246C27.4536 115.911 26.7843 115.464 26.2266 114.906L31.8039 111.557L75.6416 85.6589L77.0917 84.7658L78.4303 83.9844L125.949 55.742L131.749 52.3931Z" fill="url(#paint3_linear_1515_27868)"/>
<path d="M131.749 52.3931L78.4303 83.8728L77.0917 84.7658L75.6416 85.6589L26.2266 114.794" stroke="white" stroke-miterlimit="10"/>
<path d="M118.586 90.6819H89.5844C88.9152 90.6819 88.3574 90.1238 88.3574 89.454C88.3574 88.7842 88.9152 88.2261 89.5844 88.2261H118.586C119.256 88.2261 119.813 88.7842 119.813 89.454C119.925 90.1238 119.367 90.6819 118.586 90.6819Z" fill="#CED7E2"/>
<path d="M118.586 99.0545H89.5844C88.9152 99.0545 88.3574 98.4963 88.3574 97.8266C88.3574 97.1568 88.9152 96.5986 89.5844 96.5986H118.586C119.256 96.5986 119.813 97.1568 119.813 97.8266C119.925 98.4963 119.367 99.0545 118.586 99.0545Z" fill="#CED7E2"/>
<path d="M124.609 116.469L128.179 114.683C128.067 114.794 128.067 114.794 127.956 114.906C127.956 114.906 127.956 114.906 127.844 114.906L124.609 116.469Z" fill="#526DFF"/>
<path d="M74.2995 63.8154C73.435 63.8154 72.6213 63.4974 71.9602 62.8085L60.7211 51.0964C59.4497 49.7715 59.4497 47.5457 60.7211 46.2208C61.9925 44.896 64.1284 44.896 65.3998 46.2208L74.2995 55.4951L95.2519 33.7139C96.5233 32.389 98.6592 32.389 99.9306 33.7139C101.202 35.0388 101.202 37.2646 99.9306 38.5895L76.6388 62.8085C76.0286 63.4974 75.164 63.8154 74.2995 63.8154Z" fill="#2F80ED"/>
<defs>
<filter id="filter0_d_1515_27868" x="0.544922" y="0.0898438" width="153.204" height="150.495" filterUnits="userSpaceOnUse" color-interpolation-filters="sRGB">
<feFlood flood-opacity="0" result="BackgroundImageFix"/>
<feColorMatrix in="SourceAlpha" type="matrix" values="0 0 0 0 0 0 0 0 0 0 0 0 0 0 0 0 0 0 127 0" result="hardAlpha"/>
<feOffset dy="11"/>
<feGaussianBlur stdDeviation="11"/>
<feColorMatrix type="matrix" values="0 0 0 0 0.397708 0 0 0 0 0.47749 0 0 0 0 0.575 0 0 0 0.27 0"/>
<feBlend mode="normal" in2="BackgroundImageFix" result="effect1_dropShadow_1515_27868"/>
<feBlend mode="normal" in="SourceGraphic" in2="effect1_dropShadow_1515_27868" result="shape"/>
</filter>
<linearGradient id="paint0_linear_1515_27868" x1="76.9307" y1="101.128" x2="76.9307" y2="54.6749" gradientUnits="userSpaceOnUse">
<stop stop-color="#8A90B5"/>
<stop offset="1" stop-color="#A7AED2" stop-opacity="0"/>
</linearGradient>
<linearGradient id="paint1_linear_1515_27868" x1="75.272" y1="50.8851" x2="75.272" y2="118.288" gradientUnits="userSpaceOnUse">
<stop stop-color="#FDFEFF"/>
<stop offset="0.9964" stop-color="#ECF0F5"/>
</linearGradient>
<linearGradient id="paint2_linear_1515_27868" x1="54.0247" y1="102.203" x2="49.7431" y2="95.9409" gradientUnits="userSpaceOnUse">
<stop stop-color="#D5D8E4"/>
<stop offset="1" stop-color="#E1E4F0" stop-opacity="0"/>
</linearGradient>
<linearGradient id="paint3_linear_1515_27868" x1="78.9536" y1="50.8851" x2="78.9536" y2="118.288" gradientUnits="userSpaceOnUse">
<stop stop-color="#FDFEFF"/>
<stop offset="0.9964" stop-color="#ECF0F5"/>
</linearGradient>
</defs>
</svg>
