<svg width="80" height="80" viewBox="0 0 80 80" fill="none" xmlns="http://www.w3.org/2000/svg">
<path d="M58.2398 28.3111C58.2467 28.1537 58.2217 27.9964 58.1662 27.8489C58.1107 27.7014 58.0259 27.5666 57.9169 27.4528C57.808 27.3389 57.6771 27.2483 57.5321 27.1864C57.3872 27.1244 57.2312 27.0925 57.0736 27.0925C56.916 27.0925 56.76 27.1244 56.615 27.1864C56.4701 27.2483 56.3392 27.3389 56.2302 27.4528C56.1212 27.5666 56.0365 27.7014 55.981 27.8489C55.9255 27.9964 55.9005 28.1537 55.9074 28.3111V39.9866C55.9005 40.1441 55.9255 40.3013 55.981 40.4488C56.0365 40.5963 56.1212 40.7311 56.2302 40.845C56.3392 40.9588 56.4701 41.0495 56.615 41.1114C56.76 41.1733 56.916 41.2052 57.0736 41.2052C57.2312 41.2052 57.3872 41.1733 57.5321 41.1114C57.6771 41.0495 57.808 40.9588 57.9169 40.845C58.0259 40.7311 58.1107 40.5963 58.1662 40.4488C58.2217 40.3013 58.2467 40.1441 58.2398 39.9866V28.3111Z" fill="#565353"/>
<path d="M44.5156 34.1177C44.5152 34.5284 44.6366 34.9299 44.8645 35.2716C45.0924 35.6133 45.4165 35.8796 45.7958 36.037C46.1752 36.1944 46.5927 36.2357 46.9955 36.1557C47.3983 36.0756 47.7683 35.8779 48.0587 35.5875C48.3491 35.2971 48.5468 34.9271 48.6269 34.5243C48.7069 34.1215 48.6656 33.704 48.5082 33.3246C48.3508 32.9453 48.0845 32.6212 47.7428 32.3933C47.4011 32.1654 46.9996 32.044 46.5889 32.0444C46.039 32.0444 45.5117 32.2629 45.1229 32.6517C44.7341 33.0405 44.5156 33.5678 44.5156 34.1177Z" fill="#F15A22"/>
<path d="M19.9291 27.165C19.7733 27.1647 19.619 27.1951 19.4751 27.2546C19.3311 27.3141 19.2003 27.4014 19.0902 27.5115C18.9801 27.6216 18.8928 27.7524 18.8333 27.8964C18.7739 28.0403 18.7434 28.1946 18.7437 28.3503V36.9723C18.7437 36.9723 15.3634 33.592 15.0186 33.2427C14.9027 33.1137 14.7609 33.0105 14.6025 32.9399C14.4441 32.8692 14.2726 32.8327 14.0992 32.8326C13.9262 32.8331 13.7551 32.8699 13.5972 32.9405C13.4392 33.0112 13.2978 33.1141 13.182 33.2427C12.8462 33.583 9.45919 36.9723 9.45919 36.9723V28.3616C9.45919 28.0466 9.33407 27.7445 9.11136 27.5218C8.88864 27.2991 8.58656 27.174 8.27159 27.174C7.95662 27.174 7.65455 27.2991 7.43183 27.5218C7.20911 27.7445 7.08398 28.0466 7.08398 28.3616V39.8275C7.08904 39.9477 7.10259 40.0675 7.12455 40.1858C7.17578 40.3928 7.27757 40.5839 7.42078 40.7418C7.564 40.8998 7.74418 41.0198 7.94517 41.0911C8.14616 41.1623 8.36168 41.1826 8.57243 41.15C8.78318 41.1175 8.98256 41.0332 9.15271 40.9047C9.74764 40.454 14.1105 35.9988 14.1105 35.9988C14.1105 35.9988 18.4688 40.463 19.0682 40.9047C19.2923 41.0717 19.564 41.1625 19.8434 41.1638C20.1309 41.163 20.41 41.0664 20.6365 40.8893C20.863 40.7122 21.024 40.4646 21.0941 40.1858C21.1166 40.0676 21.1294 39.9478 21.1324 39.8275V28.3616C21.1343 28.2034 21.1043 28.0464 21.0444 27.8999C20.9845 27.7535 20.8958 27.6205 20.7836 27.509C20.6714 27.3974 20.538 27.3095 20.3912 27.2504C20.2444 27.1913 20.0873 27.1622 19.9291 27.165Z" fill="#565353"/>
<path d="M41.8405 21.451C41.8405 21.1414 41.7175 20.8445 41.4986 20.6256C41.2797 20.4067 40.9828 20.2837 40.6732 20.2837C40.3636 20.2837 40.0667 20.4067 39.8478 20.6256C39.6288 20.8445 39.5059 21.1414 39.5059 21.451V34.4809C39.5059 34.7905 39.6288 35.0874 39.8478 35.3063C40.0667 35.5252 40.3636 35.6482 40.6732 35.6482C40.9828 35.6482 41.2797 35.5252 41.4986 35.3063C41.7175 35.0874 41.8405 34.7905 41.8405 34.4809V21.451Z" fill="#565353"/>
<path d="M46.4937 41.1366C45.1121 41.1366 43.7614 40.7269 42.6126 39.9593C41.4637 39.1916 40.5683 38.1006 40.0396 36.8241C39.5108 35.5476 39.3725 34.1429 39.642 32.7878C39.9116 31.4327 40.5769 30.1879 41.5539 29.2109C42.5309 28.2339 43.7757 27.5686 45.1309 27.299C46.486 27.0295 47.8906 27.1678 49.1671 27.6966C50.4436 28.2253 51.5347 29.1207 52.3023 30.2695C53.0699 31.4184 53.4797 32.769 53.4797 34.1507C53.4797 36.0035 52.7437 37.7804 51.4335 39.0905C50.1234 40.4006 48.3465 41.1366 46.4937 41.1366ZM46.4937 29.5265C45.5796 29.5265 44.686 29.7976 43.9259 30.3054C43.1658 30.8133 42.5734 31.5351 42.2236 32.3797C41.8738 33.2242 41.7822 34.1536 41.9606 35.0501C42.1389 35.9467 42.5791 36.7703 43.2255 37.4167C43.8719 38.0631 44.6955 38.5033 45.592 38.6816C46.4886 38.8599 47.4179 38.7684 48.2625 38.4186C49.1071 38.0688 49.8289 37.4763 50.3368 36.7163C50.8446 35.9562 51.1157 35.0626 51.1157 34.1484C51.1145 32.923 50.6272 31.7481 49.7607 30.8815C48.8941 30.015 47.7192 29.5277 46.4937 29.5265Z" fill="#565353"/>
<path d="M37.1551 35.7008C37.1952 35.5466 37.2038 35.386 37.1803 35.2284C37.1568 35.0709 37.1017 34.9197 37.0184 34.784C36.935 34.6483 36.8251 34.5308 36.6953 34.4385C36.5654 34.3463 36.4183 34.2812 36.2627 34.2472C36.1071 34.2132 35.9462 34.2109 35.7897 34.2406C35.6333 34.2703 35.4844 34.3312 35.352 34.4198C35.2196 34.5084 35.1065 34.6229 35.0195 34.7562C34.9324 34.8896 34.8731 35.0392 34.8453 35.196C34.6479 36.0568 34.2075 36.8429 33.5765 37.4608C33.4977 37.5374 33.4188 37.605 33.3377 37.6749C33.2994 37.7087 33.261 37.7425 33.2205 37.774C33.1799 37.8056 33.074 37.8822 32.9951 37.9363C32.9163 37.9904 32.887 38.0151 32.8306 38.0512C32.7743 38.0873 32.6864 38.1368 32.6053 38.1774L32.4182 38.2811C32.3394 38.3216 32.2582 38.3554 32.1748 38.3915L32.0103 38.4636C31.9157 38.4996 31.821 38.5312 31.7264 38.5605L31.5889 38.6033C31.4875 38.6326 31.3839 38.6574 31.2802 38.6777L31.1563 38.7047C31.0526 38.7227 30.9489 38.7363 30.843 38.7475C30.7979 38.7475 30.7551 38.7588 30.7101 38.7611C30.6132 38.7611 30.514 38.7723 30.4148 38.7746H30.2548C30.1692 38.7746 30.0836 38.7701 29.9979 38.7611C29.9303 38.7611 29.865 38.7611 29.7974 38.743C29.7298 38.725 29.6554 38.7227 29.5833 38.7115L29.3444 38.6687L29.1754 38.6258C29.0853 38.6033 28.9951 38.5785 28.905 38.5492L28.7653 38.4996C28.6706 38.4658 28.576 38.4298 28.4858 38.3915L28.3551 38.3306C28.265 38.2878 28.1748 38.2427 28.087 38.1954L27.9472 38.112C27.8661 38.0625 27.7872 38.0151 27.7084 37.9611L27.5506 37.8439C27.483 37.792 27.4154 37.7425 27.3523 37.6884C27.2892 37.6343 27.2374 37.5847 27.1788 37.5329C27.1202 37.4811 27.0661 37.4292 27.0143 37.3729C26.9625 37.3166 26.9174 37.2647 26.8678 37.2106C26.8182 37.1566 26.7529 37.0822 26.6988 37.0146L26.6064 36.8861C26.5433 36.8005 26.4825 36.7149 26.4239 36.6247C26.4013 36.5864 26.381 36.5481 26.3563 36.5098C26.2999 36.4151 26.2458 36.3182 26.1963 36.2213C26.1737 36.174 26.1534 36.1244 26.1309 36.0771C26.0903 35.987 26.052 35.8991 26.016 35.8112C25.9799 35.7233 25.9732 35.685 25.9529 35.6219C25.9326 35.5588 25.901 35.4664 25.8785 35.3965C25.856 35.3267 25.8425 35.2523 25.8267 35.1712C25.8109 35.0901 25.7929 35.027 25.7816 34.9458C25.7703 34.8647 25.7591 34.7949 25.7501 34.7205C25.741 34.6461 25.732 34.574 25.7253 34.4951C25.7185 34.4163 25.7253 34.3532 25.7253 34.2833C25.7253 34.2135 25.7253 34.1211 25.7253 34.0399C25.7253 33.9588 25.7253 33.9205 25.7253 33.8597C25.7253 33.7988 25.7388 33.6749 25.7501 33.5847C25.7501 33.5374 25.7636 33.4901 25.7703 33.4428C25.7861 33.3391 25.8041 33.2354 25.8267 33.134C25.8267 33.1002 25.8447 33.0642 25.8515 33.0304C25.8808 32.9177 25.9101 32.805 25.9461 32.6968L25.9754 32.6157C26.016 32.503 26.0565 32.3904 26.1061 32.2799L26.1422 32.2033C26.1918 32.0951 26.2458 31.9892 26.3022 31.8856L26.3585 31.7909C26.4148 31.6963 26.4734 31.6016 26.5365 31.5115C26.5636 31.4709 26.5974 31.4304 26.6267 31.3898C26.6853 31.3109 26.7439 31.232 26.807 31.1644C26.8701 31.0968 26.8949 31.0675 26.9377 31.0202C26.9805 30.9729 27.0594 30.8873 27.1247 30.8242L27.2126 30.743C27.2937 30.6709 27.3748 30.5988 27.4605 30.5312L27.5551 30.4591C27.6475 30.3915 27.7399 30.3261 27.8368 30.263C28.5577 29.8029 29.3919 29.5511 30.247 29.5356C31.1021 29.5201 31.9448 29.7414 32.6819 30.1752L28.5354 33.8371C28.3296 34.0578 28.2173 34.3495 28.2219 34.6512C28.2266 34.9529 28.3479 35.2411 28.5603 35.4553C28.7728 35.6695 29.06 35.7931 29.3616 35.8002C29.6632 35.8074 29.9559 35.6974 30.1782 35.4935L34.2751 31.8878L34.327 31.8292L35.1427 31.0202C35.1502 31.0052 35.1601 30.9915 35.172 30.9797C35.2937 30.8581 35.3903 30.7137 35.4561 30.5548C35.522 30.3958 35.5559 30.2255 35.5559 30.0535C35.5559 29.8814 35.522 29.7111 35.4561 29.5522C35.3903 29.3932 35.2937 29.2489 35.172 29.1273L35.1585 29.1092L35.1202 29.0732C35.0996 29.0466 35.0753 29.0231 35.0481 29.0033C34.0472 28.0865 32.8014 27.4804 31.4623 27.2588C30.1232 27.0371 28.7485 27.2095 27.5056 27.7549L27.3523 27.8225L27.3253 27.836C27.2456 27.8721 27.1645 27.9126 27.0819 27.9577L26.9872 28.0073L26.861 28.0794L26.6357 28.2123H26.6244C26.532 28.2709 26.4396 28.3318 26.3495 28.3949L26.3202 28.4152C26.2368 28.4737 26.1557 28.5323 26.0768 28.5932L26.0205 28.636C25.9529 28.6901 25.8853 28.7442 25.8199 28.8005L25.7388 28.8704L25.5698 29.0213L25.4729 29.1137L25.4053 29.1768L25.3264 29.2602L25.2272 29.3639L25.0785 29.5284C25.0537 29.5554 25.0289 29.5825 25.0064 29.6118C24.9501 29.6771 24.896 29.7447 24.8419 29.8123C24.8279 29.8279 24.8151 29.8444 24.8036 29.8619C24.7405 29.943 24.6796 30.0242 24.621 30.1075C23.9726 31.029 23.5566 32.0936 23.4087 33.2106C23.3951 33.3128 23.3839 33.4142 23.3748 33.5149V33.5915C23.3748 33.6726 23.3636 33.7515 23.3613 33.8326C23.3613 33.8799 23.3613 33.925 23.3613 33.9723C23.3613 34.0197 23.3613 34.0918 23.3613 34.1504C23.3613 34.2089 23.3613 34.2811 23.3613 34.3464C23.3613 34.4118 23.3613 34.4298 23.3613 34.4726C23.3613 34.5492 23.3613 34.6281 23.3771 34.698V34.7926C23.3771 34.876 23.3951 34.9616 23.4064 35.045C23.4064 35.0698 23.4064 35.0968 23.4064 35.1216C23.4199 35.2073 23.4334 35.2929 23.4492 35.3785C23.4492 35.4033 23.4492 35.4304 23.465 35.4551C23.4808 35.5363 23.4988 35.6174 23.5168 35.7008L23.5371 35.7932C23.5574 35.8653 23.5754 35.9396 23.5957 36.0185C23.616 36.0974 23.6205 36.0997 23.6317 36.1402C23.643 36.1808 23.6701 36.2619 23.6903 36.3227C23.7106 36.3836 23.7264 36.4309 23.7444 36.485C23.7625 36.5391 23.7782 36.5774 23.7963 36.6247L23.8774 36.8275L23.9179 36.9222C23.954 37.0056 23.9923 37.0844 24.0306 37.1656L24.0577 37.2219C24.1027 37.3143 24.1501 37.4044 24.2019 37.4968L24.2154 37.5216C24.2695 37.6185 24.3258 37.7154 24.3844 37.8101C24.4408 37.9002 24.5016 37.9926 24.5625 38.0827L24.5872 38.1165C24.6413 38.1954 24.6999 38.272 24.7585 38.3419L24.8103 38.4095C24.8577 38.4726 24.9095 38.5334 24.9613 38.5943C25.0132 38.6551 25.0177 38.6642 25.047 38.698L25.1777 38.8399L25.2971 38.9684L25.3489 39.0225L25.4165 39.0878L25.5495 39.214L25.6802 39.3334L25.8019 39.4394L25.9619 39.5701L26.0565 39.6422C26.1219 39.694 26.1872 39.7436 26.2549 39.7909L26.3134 39.8315C26.3923 39.8878 26.4757 39.9419 26.5568 39.9937L26.5749 40.005C27.234 40.4243 27.9594 40.7291 28.7202 40.9064H28.7517L29.0289 40.965L29.1281 40.9808C29.1979 40.9943 29.2701 41.0056 29.3399 41.0146L29.5112 41.0371L29.6532 41.0529L29.8988 41.0709H29.9664H30.2819C31.1761 41.0751 32.0627 40.9075 32.8937 40.5774L32.9343 40.5616C33.0199 40.5256 33.1033 40.4918 33.1867 40.4534L33.2723 40.4129C33.3422 40.3813 33.4098 40.3475 33.4796 40.3115L33.5991 40.2506L33.7771 40.1515L33.9123 40.0726C33.9439 40.0546 33.9754 40.0365 34.0047 40.0163L34.0768 39.9712L34.2053 39.8856L34.381 39.7661L34.4757 39.694L34.6763 39.5408L34.7348 39.4935L34.9602 39.3041L34.9917 39.2726C35.0699 39.202 35.145 39.1269 35.2171 39.0473H35.2306C36.1738 38.1112 36.8298 36.9251 37.1213 35.6287L37.1551 35.7008Z" fill="#565353"/>
<path d="M73.7139 38.6825H64.9252C67.1922 36.429 70.595 33.0059 72.1229 31.4713L74.0857 29.5648C74.3359 29.2651 74.6491 28.909 74.6514 28.4515C74.6551 28.1144 74.5268 27.7892 74.294 27.5454C74.0611 27.3016 73.7421 27.1585 73.4052 27.1467H62.1376C61.8232 27.145 61.521 27.2681 61.2974 27.4892C61.0739 27.7102 60.9473 28.011 60.9455 28.3253C60.9437 28.6397 61.0669 28.9419 61.2879 29.1655C61.5089 29.3891 61.8097 29.5157 62.1241 29.5175H70.408L64.0869 35.8431C62.8091 37.0803 61.6734 38.2048 61.0401 38.8899C60.9006 39.0099 60.7874 39.1576 60.7079 39.3236C60.6284 39.4896 60.5842 39.6704 60.5782 39.8544C60.5756 40.176 60.6984 40.486 60.9205 40.7186C61.1426 40.9513 61.4466 41.0883 61.768 41.1006H73.7117C74.0279 41.1012 74.3314 40.9766 74.5561 40.7541C74.7807 40.5315 74.9082 40.2291 74.9105 39.9129C74.9132 39.7535 74.8843 39.595 74.8256 39.4467C74.7668 39.2985 74.6793 39.1632 74.5681 39.0489C74.4569 38.9345 74.3242 38.8433 74.1776 38.7804C74.031 38.7176 73.8734 38.6843 73.7139 38.6825Z" fill="#565353"/>
<path d="M13.0081 55.0666H9.20733L8.55428 56.8848H7L10.2522 47.9731H11.9763L15.2285 56.8848H13.6612L13.0081 55.0666ZM12.5902 53.8758L11.1143 49.7401L9.62529 53.8758H12.5902Z" fill="#F15A22"/>
<path d="M19.7903 51.0205H18.4581V56.8848H16.9561V51.0205H16.1071V49.8297H16.9561V49.3303C16.9561 48.5194 17.1737 47.9304 17.6091 47.5634C18.0532 47.1878 18.7454 47 19.6858 47V48.2164C19.2331 48.2164 18.9152 48.3017 18.7324 48.4725C18.5495 48.6347 18.4581 48.9206 18.4581 49.3303V49.8297H19.7903V51.0205Z" fill="#F15A22"/>
<path d="M24.2576 51.0205H22.9254V56.8848H21.4234V51.0205H20.5744V49.8297H21.4234V49.3303C21.4234 48.5194 21.6411 47.9304 22.0764 47.5634C22.5205 47.1878 23.2128 47 24.1532 47V48.2164C23.7004 48.2164 23.3826 48.3017 23.1997 48.4725C23.0168 48.6347 22.9254 48.9206 22.9254 49.3303V49.8297H24.2576V51.0205Z" fill="#F15A22"/>
<path d="M26.4654 48.895C26.1955 48.895 25.9691 48.8054 25.7862 48.6261C25.6034 48.4469 25.5119 48.2249 25.5119 47.9603C25.5119 47.6957 25.6034 47.4738 25.7862 47.2945C25.9691 47.1152 26.1955 47.0256 26.4654 47.0256C26.7266 47.0256 26.9487 47.1152 27.1315 47.2945C27.3144 47.4738 27.4058 47.6957 27.4058 47.9603C27.4058 48.2249 27.3144 48.4469 27.1315 48.6261C26.9487 48.8054 26.7266 48.895 26.4654 48.895ZM27.1968 49.8297V56.8848H25.7078V49.8297H27.1968Z" fill="#F15A22"/>
<path d="M30.7713 47.4097V56.8848H29.2823V47.4097H30.7713Z" fill="#F15A22"/>
<path d="M33.6143 48.895C33.3444 48.895 33.118 48.8054 32.9351 48.6261C32.7523 48.4469 32.6609 48.2249 32.6609 47.9603C32.6609 47.6957 32.7523 47.4738 32.9351 47.2945C33.118 47.1152 33.3444 47.0256 33.6143 47.0256C33.8755 47.0256 34.0976 47.1152 34.2804 47.2945C34.4633 47.4738 34.5547 47.6957 34.5547 47.9603C34.5547 48.2249 34.4633 48.4469 34.2804 48.6261C34.0976 48.8054 33.8755 48.895 33.6143 48.895ZM34.3457 49.8297V56.8848H32.8568V49.8297H34.3457Z" fill="#F15A22"/>
<path d="M35.9349 53.3252C35.9349 52.6167 36.083 51.9893 36.379 51.443C36.6838 50.8967 37.093 50.4742 37.6068 50.1754C38.1292 49.8681 38.7039 49.7145 39.3308 49.7145C39.8968 49.7145 40.3888 49.8254 40.8067 50.0474C41.2334 50.2608 41.573 50.5297 41.8255 50.854V49.8297H43.3275V56.8848H41.8255V55.8348C41.573 56.1677 41.229 56.4452 40.7937 56.6671C40.3583 56.889 39.862 57 39.3047 57C38.6865 57 38.1205 56.8464 37.6068 56.5391C37.093 56.2232 36.6838 55.7879 36.379 55.233C36.083 54.6697 35.9349 54.0337 35.9349 53.3252ZM41.8255 53.3508C41.8255 52.8643 41.721 52.4417 41.512 52.0832C41.3118 51.7247 41.0462 51.4516 40.7153 51.2638C40.3844 51.076 40.0274 50.9821 39.6443 50.9821C39.2612 50.9821 38.9042 51.076 38.5733 51.2638C38.2424 51.443 37.9725 51.7119 37.7635 52.0704C37.5632 52.4204 37.4631 52.8387 37.4631 53.3252C37.4631 53.8118 37.5632 54.2386 37.7635 54.6056C37.9725 54.9727 38.2424 55.2544 38.5733 55.4507C38.9129 55.6385 39.2699 55.7324 39.6443 55.7324C40.0274 55.7324 40.3844 55.6385 40.7153 55.4507C41.0462 55.2629 41.3118 54.9898 41.512 54.6312C41.721 54.2642 41.8255 53.8374 41.8255 53.3508Z" fill="#F15A22"/>
<path d="M47.151 51.0205V54.9257C47.151 55.1904 47.2119 55.3824 47.3338 55.5019C47.4645 55.6129 47.6821 55.6684 47.9869 55.6684H48.9012V56.8848H47.7257C47.0552 56.8848 46.5415 56.7311 46.1845 56.4238C45.8275 56.1165 45.6489 55.6172 45.6489 54.9257V51.0205H44.8V49.8297H45.6489V48.0755H47.151V49.8297H48.9012V51.0205H47.151Z" fill="#F15A22"/>
<path d="M57 53.1844C57 53.449 56.9826 53.688 56.9478 53.9014H51.449C51.4926 54.4648 51.7059 54.9172 52.089 55.2586C52.4721 55.6001 52.9423 55.7708 53.4996 55.7708C54.3007 55.7708 54.8667 55.4422 55.1976 54.7849H56.8041C56.5864 55.4336 56.1902 55.9671 55.6155 56.3854C55.0495 56.7951 54.3442 57 53.4996 57C52.8117 57 52.1935 56.8506 51.6449 56.5519C51.1051 56.2446 50.6784 55.8178 50.3649 55.2714C50.0602 54.7166 49.9078 54.0764 49.9078 53.3508C49.9078 52.6253 50.0558 51.9893 50.3519 51.443C50.6566 50.8882 51.0789 50.4614 51.6188 50.1626C52.1674 49.8638 52.7943 49.7145 53.4996 49.7145C54.1788 49.7145 54.784 49.8596 55.3151 50.1498C55.8463 50.44 56.2599 50.8498 56.5559 51.379C56.852 51.8997 57 52.5015 57 53.1844ZM55.4457 52.7234C55.437 52.1857 55.2411 51.7546 54.858 51.4302C54.4748 51.1058 54.0003 50.9437 53.4343 50.9437C52.9206 50.9437 52.4808 51.1058 52.1151 51.4302C51.7494 51.7461 51.5317 52.1771 51.4621 52.7234H55.4457Z" fill="#F15A22"/>
</svg>
